HIERARCHY
ROOT Pelvis
{
	OFFSET 0.000000 0.000000 0.000000
	CHANNELS 6 Xposition Yposition Zposition Xrotation Yrotation Zrotation
	JOINT LeftUpLeg_virtual
	{
		OFFSET 0.000000 0.000000 0.000000
		CHANNELS 3 Xrotation Yrotation Zrotation
		JOINT LeftUpLeg
		{
			OFFSET 18.735201 -5.666702 -4.541200
			CHANNELS 3 Xrotation Yrotation Zrotation
			JOINT LeftLeg
			{
				OFFSET -0.021200 -31.938179 0.493100
				CHANNELS 3 Xrotation Yrotation Zrotation
				JOINT LeftFoot
				{
					OFFSET 0.021200 -31.938179 -4.336299
					CHANNELS 3 Xrotation Yrotation Zrotation
					JOINT LeftToeBase
					{
						OFFSET 0.943001 -26.722000 15.023500
						CHANNELS 3 Xrotation Yrotation Zrotation
						End Site
						{
							OFFSET 0 0 0
						}
					}
				}
			}
		}
	}
	JOINT RightUpLeg_virtual
	{
		OFFSET 0.000000 0.000000 0.000000
		CHANNELS 3 Xrotation Yrotation Zrotation
		JOINT RightUpLeg
		{
			OFFSET -18.735201 -5.666702 -4.541200
			CHANNELS 3 Xrotation Yrotation Zrotation
			JOINT RightLeg
			{
				OFFSET 0.018946 -31.938133 0.493100
				CHANNELS 3 Xrotation Yrotation Zrotation
				JOINT RightFoot
				{
					OFFSET -0.018946 -31.938126 -4.336299
					CHANNELS 3 Xrotation Yrotation Zrotation
					JOINT RightToeBase
					{
						OFFSET -0.943001 -26.722004 15.023500
						CHANNELS 3 Xrotation Yrotation Zrotation
						End Site
						{
							OFFSET 0 0 0
						}
					}
				}
			}
		}
	}
	JOINT Hips_virtual
	{
		OFFSET 0.000000 0.000000 0.000000
		CHANNELS 3 Xrotation Yrotation Zrotation
		JOINT Hips
		{
			OFFSET -0.000000 -0.000000 -0.000000
			CHANNELS 3 Xrotation Yrotation Zrotation
			JOINT Spine
			{
				OFFSET 0.000000 10.199997 -0.299500
				CHANNELS 3 Xrotation Yrotation Zrotation
				JOINT Spine1
				{
					OFFSET 0.000000 11.900002 -1.516600
					CHANNELS 3 Xrotation Yrotation Zrotation
					JOINT Spine2
					{
						OFFSET 0.000000 13.600006 -2.842500
						CHANNELS 3 Xrotation Yrotation Zrotation
						JOINT Neck_virtual
						{
							OFFSET 0.000000 0.000000 0.000000
							CHANNELS 3 Xrotation Yrotation Zrotation
							JOINT Neck
							{
								OFFSET 0.000000 9.624100 -2.890100
								CHANNELS 3 Xrotation Yrotation Zrotation
								JOINT Head
								{
									OFFSET 0.000000 14.068802 -1.351900
									CHANNELS 3 Xrotation Yrotation Zrotation
									End Site
									{
										OFFSET 0 0 0
									}
								}
							}
						}
						JOINT LeftShoulder_virtual
						{
							OFFSET 0.000000 0.000000 0.000000
							CHANNELS 3 Xrotation Yrotation Zrotation
							JOINT LeftShoulder
							{
								OFFSET 15.263000 10.923401 -0.547700
								CHANNELS 3 Xrotation Yrotation Zrotation
								JOINT LeftArm
								{
									OFFSET 25.438599 -2.830597 -13.032500
									CHANNELS 3 Xrotation Yrotation Zrotation
									JOINT LeftForeArm
									{
										OFFSET 29.960503 0.000000 0.000000
										CHANNELS 3 Xrotation Yrotation Zrotation
										JOINT LeftHand
										{
											OFFSET 27.849251 0.000000 0.000000
											CHANNELS 3 Xrotation Yrotation Zrotation
											End Site
											{
												OFFSET 0 0 0
											}
										}
									}
								}
							}
						}
						JOINT RightShoulder_virtual
						{
							OFFSET 0.000000 0.000000 0.000000
							CHANNELS 3 Xrotation Yrotation Zrotation
							JOINT RightShoulder
							{
								OFFSET -15.263000 10.923401 -0.547700
								CHANNELS 3 Xrotation Yrotation Zrotation
								JOINT RightArm
								{
									OFFSET -25.438599 -2.830597 -13.032500
									CHANNELS 3 Xrotation Yrotation Zrotation
									JOINT RightForeArm
									{
										OFFSET -29.960503 0.000000 0.000000
										CHANNELS 3 Xrotation Yrotation Zrotation
										JOINT RightHand
										{
											OFFSET -27.849251 0.000000 0.000000
											CHANNELS 3 Xrotation Yrotation Zrotation
											End Site
											{
												OFFSET 0 0 0
											}
										}
									}
								}
							}
						}
					}
				}
			}
		}
	}
}
MOTION
Frames: 4
Frame Time: 0.03333333
0.367300 204.581284 5.054642 0.000000 0.000000 0.000000 -4.562479 4.962991 3.967412 -8.329374 15.724593 10.224704 13.443136 -8.308853 -0.426233 -2.912916 0.723884 -7.681101 0.000000 0.000000 0.000000 -4.562479 4.962991 3.967412 -0.089123 -10.288930 -6.289703 25.630437 6.216372 0.295636 -30.155657 -1.863526 5.180105 0.000000 0.000000 0.000000 -4.562479 4.962991 3.967412 -0.000001 0.000000 0.000000 4.647162 -0.743931 1.573722 9.932383 -0.680240 3.008162 0.000000 0.000000 0.000000 9.936598 -0.617924 3.002060 -0.217989 0.701686 -2.176400 0.000000 0.000000 0.000000 9.936598 -0.617924 3.002060 -0.221754 14.341896 -11.465857 4.441027 -10.208752 -60.164493 0.000009 -50.304446 0.000014 0.000000 0.000000 0.000000 9.936598 -0.617924 3.002060 1.119628 3.440113 7.346931 -5.089671 8.252991 56.488472 0.000013 38.764530 -0.000032 0.000000 0.000000 0.000000 
0.347394 204.537140 5.005749 0.000000 0.000000 0.000000 -4.311532 4.965472 3.957981 -8.825586 15.572213 10.240786 13.883872 -8.305938 -0.422973 -3.174987 0.746532 -7.606085 0.000000 0.000000 0.000000 -4.311532 4.965472 3.957981 -0.351397 -10.274916 -6.273957 25.656952 6.208206 0.295234 -30.308213 -1.860010 5.110555 0.000000 0.000000 0.000000 -4.311532 4.965472 3.957981 0.000000 0.000000 0.000000 4.618489 -0.739300 1.573845 9.886747 -0.664537 3.002675 0.000000 0.000000 0.000000 9.891312 -0.602347 2.995067 -0.238350 0.730154 -2.225304 0.000000 0.000000 0.000000 9.891312 -0.602347 2.995067 -0.219945 14.506519 -11.612864 4.361431 -10.445357 -59.944663 -0.000006 -50.526318 -0.000026 0.000000 0.000000 0.000000 9.891312 -0.602347 2.995067 1.111065 3.468512 7.163201 -4.424845 9.153714 56.002808 0.000007 39.178631 -0.000012 0.000000 0.000000 0.000000 
0.333568 204.486481 4.952868 0.000000 0.000000 0.000000 -4.048781 4.987880 3.951314 -9.365837 15.417183 10.258269 14.453087 -8.130725 -0.409585 -3.543633 0.782861 -7.560109 0.000000 0.000000 0.000000 -4.048781 4.987880 3.951314 -0.634848 -10.260019 -6.262055 25.712816 6.186580 0.294352 -30.487618 -1.857534 5.037485 0.000000 0.000000 0.000000 -4.048781 4.987880 3.951314 -0.000001 0.000000 0.000000 4.586212 -0.737848 1.568427 9.837529 -0.656225 2.999171 0.000000 0.000000 0.000000 9.842315 -0.594122 2.990733 -0.243757 0.758540 -2.277787 0.000000 0.000000 0.000000 9.842315 -0.594122 2.990733 -0.217723 14.595749 -11.694880 4.265775 -10.605528 -59.786312 -0.000004 -50.764097 -0.000001 0.000000 0.000000 0.000000 9.842315 -0.594122 2.990733 1.104805 3.548996 6.940644 -3.653390 10.119991 55.385242 0.000010 39.770737 -0.000021 0.000000 0.000000 0.000000 
0.324626 204.429581 4.890186 0.000000 0.000000 0.000000 -3.774025 5.035473 3.949290 -9.941205 15.276842 10.269904 15.170719 -7.636050 -0.378916 -4.019844 0.837400 -7.578798 0.000000 0.000000 0.000000 -3.774025 5.035473 3.949290 -0.955422 -10.242572 -6.253893 25.815858 6.144807 0.292732 -30.690731 -1.854252 4.955435 0.000000 0.000000 0.000000 -3.774025 5.035473 3.949290 0.000000 0.000000 0.000000 4.553288 -0.739191 1.557538 9.789342 -0.654193 2.995627 0.000000 0.000000 0.000000 9.794233 -0.592126 2.986812 -0.242071 0.786179 -2.330872 0.000000 0.000000 0.000000 9.794233 -0.592126 2.986812 -0.216478 14.635955 -11.728230 4.166837 -10.728388 -59.653663 -0.000004 -51.016606 0.000002 0.000000 0.000000 0.000000 9.794233 -0.592126 2.986812 1.100249 3.659959 6.697158 -2.825911 11.105693 54.696151 0.000007 40.467150 -0.000019 0.000000 0.000000 0.000000 
